<?xml version="1.0" encoding="UTF-8"?>
<svg xmlns="http://www.w3.org/2000/svg" viewBox="0 0 512 512" role="img" aria-label="Arachnel">
  
  <circle cx="256.00" cy="256.00" r="199.68" fill="#E8DEF8"/>
  <g fill="none" stroke="#49454F" stroke-width="14.34"
     stroke-linecap="round" stroke-linejoin="round">
    <line x1="256.00" y1="256.00" x2="256.00" y2="76.29"/>
    <line x1="256.00" y1="256.00" x2="383.08" y2="128.92"/>
    <line x1="256.00" y1="256.00" x2="435.71" y2="256.00"/>
    <line x1="256.00" y1="256.00" x2="383.08" y2="383.08"/>
    <line x1="256.00" y1="256.00" x2="256.00" y2="435.71"/>
    <line x1="256.00" y1="256.00" x2="128.92" y2="383.08"/>
    <line x1="256.00" y1="256.00" x2="76.29" y2="256.00"/>
    <line x1="256.00" y1="256.00" x2="128.92" y2="128.92"/>
    <path d="M 256.00 196.10 L 298.36 213.64 L 315.90 256.00 L 298.36 298.36 L 256.00 315.90 L 213.64 298.36 L 196.10 256.00 L 213.64 213.64 Z"/>
    <path d="M 256.00 136.19 L 340.72 171.28 L 375.81 256.00 L 340.72 340.72 L 256.00 375.81 L 171.28 340.72 L 136.19 256.00 L 171.28 171.28 Z"/>
    <path d="M 256.00 76.29 L 383.08 128.92 L 435.71 256.00 L 383.08 383.08 L 256.00 435.71 L 128.92 383.08 L 76.29 256.00 L 128.92 128.92 Z"/>
  </g>
  <circle cx="256.00" cy="256.00" r="20.07" fill="#49454F"/>
</svg>
